# xmcd
#
# Track frame offsets:
#	183
#	16668
#	37803
#	54668
#	73953
#	89863
#	109523
#	121773
#	138745
#	153415
#
# Disc length: 2283 seconds
#
# Revision: 2
# Processed by: cddbd v1.5.2PL0 Copyright (c) Steve Scherf et al.
# Submitted via: EZCDAudioConverter 2.2.2.1
#
DISCID=8408e90a
DTITLE=Manolo Escobar - Que Bonita Eres
DYEAR=1900
DGENRE=country
TTITLE0=Que Bonita Eres
TTITLE1=Dolores
TTITLE2=Sabor A Limon
TTITLE3=Perdido Amor
TTITLE4=Tu Vestido Blanco
TTITLE5=Campiña
TTITLE6=Quiero Ser El Camino
TTITLE7=España Huele A Pueblo
TTITLE8=Late Corazon
TTITLE9=Si Tu Quisieras
EXTD=
EXTT0=
EXTT1=
EXTT2=
EXTT3=
EXTT4=
EXTT5=
EXTT6=
EXTT7=
EXTT8=
EXTT9=
PLAYORDER=
